<mxfile host="app.diagrams.net" modified="2023-11-07T07:42:55.289Z" agent="Mozilla/5.0 (Windows NT 10.0; Win64; x64) AppleWebKit/537.36 (KHTML, like Gecko) Chrome/118.0.0.0 Safari/537.36" etag="LRKGZe5tVs4vOxP5vZSB" version="22.0.8" type="device">
  <diagram id="C5RBs43oDa-KdzZeNtuy" name="Page-1">
    <mxGraphModel dx="1114" dy="610" grid="1" gridSize="10" guides="1" tooltips="1" connect="1" arrows="1" fold="1" page="1" pageScale="1" pageWidth="827" pageHeight="1169" math="0" shadow="0">
      <root>
        <mxCell id="WIyWlLk6GJQsqaUBKTNV-0" />
        <mxCell id="WIyWlLk6GJQsqaUBKTNV-1" parent="WIyWlLk6GJQsqaUBKTNV-0" />
        <mxCell id="0n0ouNS5sNZr6mdxKc7L-50" style="edgeStyle=orthogonalEdgeStyle;rounded=0;orthogonalLoop=1;jettySize=auto;html=1;" edge="1" parent="WIyWlLk6GJQsqaUBKTNV-1" target="0n0ouNS5sNZr6mdxKc7L-49">
          <mxGeometry relative="1" as="geometry">
            <mxPoint x="125" y="80" as="sourcePoint" />
          </mxGeometry>
        </mxCell>
        <mxCell id="0n0ouNS5sNZr6mdxKc7L-52" style="edgeStyle=orthogonalEdgeStyle;rounded=0;orthogonalLoop=1;jettySize=auto;html=1;" edge="1" parent="WIyWlLk6GJQsqaUBKTNV-1" source="0n0ouNS5sNZr6mdxKc7L-49" target="0n0ouNS5sNZr6mdxKc7L-51">
          <mxGeometry relative="1" as="geometry" />
        </mxCell>
        <mxCell id="0n0ouNS5sNZr6mdxKc7L-49" value="Masukan Nilai anda" style="shape=parallelogram;perimeter=parallelogramPerimeter;whiteSpace=wrap;html=1;fixedSize=1;" vertex="1" parent="WIyWlLk6GJQsqaUBKTNV-1">
          <mxGeometry x="52.5" y="120" width="145" height="50" as="geometry" />
        </mxCell>
        <mxCell id="0n0ouNS5sNZr6mdxKc7L-54" style="edgeStyle=orthogonalEdgeStyle;rounded=0;orthogonalLoop=1;jettySize=auto;html=1;" edge="1" parent="WIyWlLk6GJQsqaUBKTNV-1" source="0n0ouNS5sNZr6mdxKc7L-51" target="0n0ouNS5sNZr6mdxKc7L-53">
          <mxGeometry relative="1" as="geometry" />
        </mxCell>
        <mxCell id="0n0ouNS5sNZr6mdxKc7L-55" value="Tidak" style="edgeLabel;html=1;align=center;verticalAlign=middle;resizable=0;points=[];" vertex="1" connectable="0" parent="0n0ouNS5sNZr6mdxKc7L-54">
          <mxGeometry x="-0.1273" y="3" relative="1" as="geometry">
            <mxPoint as="offset" />
          </mxGeometry>
        </mxCell>
        <mxCell id="0n0ouNS5sNZr6mdxKc7L-57" style="edgeStyle=orthogonalEdgeStyle;rounded=0;orthogonalLoop=1;jettySize=auto;html=1;" edge="1" parent="WIyWlLk6GJQsqaUBKTNV-1" source="0n0ouNS5sNZr6mdxKc7L-51" target="0n0ouNS5sNZr6mdxKc7L-56">
          <mxGeometry relative="1" as="geometry" />
        </mxCell>
        <mxCell id="0n0ouNS5sNZr6mdxKc7L-51" value="Nilai &amp;gt;=80 &amp;amp;&amp;amp; Nilai &amp;lt;=100" style="strokeWidth=2;html=1;shape=mxgraph.flowchart.decision;whiteSpace=wrap;" vertex="1" parent="WIyWlLk6GJQsqaUBKTNV-1">
          <mxGeometry x="75" y="210" width="100" height="100" as="geometry" />
        </mxCell>
        <mxCell id="0n0ouNS5sNZr6mdxKc7L-53" value="Anda Remed" style="rounded=1;whiteSpace=wrap;html=1;" vertex="1" parent="WIyWlLk6GJQsqaUBKTNV-1">
          <mxGeometry x="230" y="240" width="80" height="40" as="geometry" />
        </mxCell>
        <mxCell id="0n0ouNS5sNZr6mdxKc7L-60" style="edgeStyle=orthogonalEdgeStyle;rounded=0;orthogonalLoop=1;jettySize=auto;html=1;" edge="1" parent="WIyWlLk6GJQsqaUBKTNV-1" source="0n0ouNS5sNZr6mdxKc7L-56" target="0n0ouNS5sNZr6mdxKc7L-59">
          <mxGeometry relative="1" as="geometry" />
        </mxCell>
        <mxCell id="0n0ouNS5sNZr6mdxKc7L-56" value="Anda Lulus" style="rounded=1;whiteSpace=wrap;html=1;" vertex="1" parent="WIyWlLk6GJQsqaUBKTNV-1">
          <mxGeometry x="85" y="350" width="80" height="40" as="geometry" />
        </mxCell>
        <mxCell id="0n0ouNS5sNZr6mdxKc7L-58" value="Mulai" style="strokeWidth=2;html=1;shape=mxgraph.flowchart.terminator;whiteSpace=wrap;" vertex="1" parent="WIyWlLk6GJQsqaUBKTNV-1">
          <mxGeometry x="82.5" y="30" width="85" height="50" as="geometry" />
        </mxCell>
        <mxCell id="0n0ouNS5sNZr6mdxKc7L-59" value="Selesai" style="strokeWidth=2;html=1;shape=mxgraph.flowchart.terminator;whiteSpace=wrap;" vertex="1" parent="WIyWlLk6GJQsqaUBKTNV-1">
          <mxGeometry x="220" y="345" width="90" height="50" as="geometry" />
        </mxCell>
      </root>
    </mxGraphModel>
  </diagram>
</mxfile>
